<svg xmlns="http://www.w3.org/2000/svg" version="1.1" xmlns:xlink="http://www.w3.org/1999/xlink" xmlns:svgjs="http://svgjs.dev/svgjs" width="100%" height="100%" viewBox="0 0 1000 600"><rect width="1000" height="600" x="0" y="0" fill="transparent"/><g><circle r="166.66666666666666" cx="400.4882456461588" cy="422.71058253581793" fill="#03a64a" transform="matrix(0.5345954055602693,0,0,0.5345954055602693,0,74.02086193571846)"/><path d="M390.149205512639 376.29948455178834Q390.149205512639 365.30376080329023 386.9726630964062 361.4552574913159Q383.7655770030943 357.6067541793415 374.96899800429577 357.1791427002333L374.96899800429577 357.1791427002333Q373.86942562944597 354.094231315238 373.86942562944597 347.7106028056932L373.86942562944597 347.7106028056932Q385.96472175279393 348.3825637014348 400.47296836539556 348.3825637014348L400.47296836539556 348.3825637014348Q413.9121862802266 348.3825637014348 427.1070547784244 347.7106028056932L427.1070547784244 347.7106028056932Q427.1070547784244 354.094231315238 426.0074824035746 357.1791427002333L426.0074824035746 357.1791427002333Q417.2109034047761 357.6067541793415 414.0038173114641 361.4552574913159Q410.8272748952313 365.30376080329023 410.8272748952313 376.29948455178834L410.8272748952313 376.29948455178834L410.8272748952313 469.12171919536Q410.8272748952313 480.1174429438582 414.0038173114641 483.9659462558325Q417.2109034047761 487.8144495678068 426.0074824035746 488.2420610469151L426.0074824035746 488.2420610469151Q427.1070547784244 491.3269724319104 427.1070547784244 497.71060094145514L427.1070547784244 497.71060094145514Q413.9121862802266 497.0386400457136 400.47296836539556 497.0386400457136L400.47296836539556 497.0386400457136Q385.07895511749825 497.0386400457136 373.86942562944597 497.71060094145514L373.86942562944597 497.71060094145514Q373.86942562944597 491.3269724319104 374.96899800429577 488.2420610469151L374.96899800429577 488.2420610469151Q383.7655770030943 487.8144495678068 386.9726630964062 483.9659462558325Q390.149205512639 480.1174429438582 390.149205512639 469.12171919536L390.149205512639 469.12171919536L390.149205512639 376.29948455178834Z " fill="white" transform="matrix(0.5345954055602693,0,0,0.5345954055602693,0,74.02086193571846)"/><path d="M756.2209796721895 386.7396695208617Q764.5173057199183 386.7396695208617 774.5395098140725 386.31576964980985L774.5395098140725 386.31576964980985Q774.5395098140725 392.85593908889535 773.6614315097509 396.1260238084381L773.6614315097509 396.1260238084381Q769.0893686148347 396.54992367948995 766.6973621996135 398.5180302236592Q764.3053557843925 400.48613676782844 763.3061632311988 405.1490353493987Q762.3372492402232 409.8422124931869 762.3372492402232 419.01661684523737L762.3372492402232 419.01661684523737L762.3372492402232 495.9544434411461Q759.4910643917324 497.2564216165196 753.4050733859167 497.2564216165196L753.4050733859167 497.2564216165196L675.1349900524165 410.72029079750854L675.1349900524165 463.0416463101926Q675.1349900524165 472.428000597769 676.3158539789181 477.2120134282112Q677.5269964676376 481.9960262586534 680.3731813161285 483.96413280282263Q683.1890876024014 485.9322393469919 688.6392288016393 486.3561392180437L688.6392288016393 486.3561392180437Q689.7292570414869 489.8684524353304 689.7292570414869 496.16639337667203L689.7292570414869 496.16639337667203Q677.9508963386894 495.7424935056202 670.3206986597563 495.7424935056202L670.3206986597563 495.7424935056202Q660.0865446300762 495.7424935056202 650.4882404069739 496.16639337667203L650.4882404069739 496.16639337667203Q650.4882404069739 489.8684524353304 651.5782686468215 486.3561392180437L651.5782686468215 486.3561392180437Q657.0284098460594 485.9322393469919 659.7534804456784 483.96413280282263Q662.4785510452973 481.9960262586534 663.6896935340169 477.2120134282112Q664.8705574605184 472.428000597769 664.8705574605184 463.0416463101926L664.8705574605184 463.0416463101926L664.8705574605184 399.39610852798086L664.6586075249925 399.15388003023696Q663.144679414093 397.63995191933753 660.752672998872 397.09493779941374Q658.3303880214329 396.54992367948995 651.5782686468215 396.1260238084381L651.5782686468215 396.1260238084381Q650.4882404069739 392.1898107200996 650.4882404069739 386.31576964980985L650.4882404069739 386.31576964980985Q658.3303880214329 386.7396695208617 665.7486357648401 386.7396695208617L665.7486357648401 386.7396695208617Q672.5007551394515 386.7396695208617 679.4951030118068 386.31576964980985L679.4951030118068 386.31576964980985L752.0728166483252 467.6137092051089L752.0728166483252 419.01661684523737Q752.0728166483252 409.8422124931869 750.8919527218236 405.1490353493987Q749.680810233104 400.48613676782844 746.8649039468312 398.5180302236592Q744.0187190983402 396.54992367948995 738.3566279635763 396.1260238084381L738.3566279635763 396.1260238084381Q737.4785496592547 391.09978248025203 737.4785496592547 386.31576964980985L737.4785496592547 386.31576964980985Q748.3788320577305 386.7396695208617 756.2209796721895 386.7396695208617L756.2209796721895 386.7396695208617ZM859.7736624577101 347.92255275740047Q895.7445943726805 347.92255275740047 919.1802015294036 362.88016249308674Q942.6158086861265 377.8074936665551 942.6158086861265 418.3504884764416L942.6158086861265 418.3504884764416Q942.6158086861265 464.3436244855661 916.3642952431305 480.05819827670217Q890.0825032379166 495.7424935056202 859.7736624577101 495.7424935056202L859.7736624577101 495.7424935056202Q819.6545675188754 495.7424935056202 803.3041439211615 496.4086218744159L803.3041439211615 496.4086218744159Q803.3041439211615 490.08040237085635 804.3941721610092 487.02226758683946L804.3941721610092 487.02226758683946Q810.5104417290429 486.5983677157876 813.6594121997136 484.8422111071443Q816.8386612326024 483.08605449850097 818.261753656848 478.63510585245666Q819.6545675188754 474.1538786441944 819.6545675188754 465.64560266093963L819.6545675188754 465.64560266093963L819.6545675188754 376.0513370579118Q819.6545675188754 365.15105465943594 816.5055970482047 361.33595581996934Q813.3566265775337 357.52085698050286 804.6364006587532 357.096957109451L804.6364006587532 357.096957109451Q803.5463724189055 354.0388223254342 803.5463724189055 347.7106028218746L803.5463724189055 347.7106028218746Q813.5685765130597 348.37673119067034 834.0671631346379 348.37673119067034L834.0671631346379 348.37673119067034L846.9052735150651 348.1647812551444Q851.2653864744555 347.92255275740047 859.7736624577101 347.92255275740047L859.7736624577101 347.92255275740047ZM859.7736624577101 485.9322393469919Q888.1143966937473 485.9322393469919 904.1317561070632 471.2168581090495Q920.1793940825971 456.5014768711071 920.1793940825971 421.6205731959844L920.1793940825971 421.6205731959844Q920.1793940825971 399.15388003023696 911.3380539149446 384.4384987922946Q902.4967137472918 369.7231175543522 888.1143966937473 362.9709981797408Q873.7320796402028 356.21887880512935 856.2916278026414 356.21887880512935L856.2916278026414 356.21887880512935Q852.3554147143029 356.21887880512935 847.6925161327326 356.7638929250531Q842.9993389889446 357.30890704497693 840.1531541404536 358.1869853492986L840.1531541404536 358.1869853492986L840.1531541404536 465.64560266093963Q840.1531541404536 474.1538786441944 841.6973608135711 478.3020416680588Q843.2112889244704 482.4502046919232 847.3594519483349 484.17608273834855Q851.5076149721992 485.9322393469919 859.7736624577101 485.9322393469919L859.7736624577101 485.9322393469919ZM1055.7667956947494 464.79780291883594Q1061.6408367650392 465.8878311586835 1065.365099917852 469.5818157492781L1065.365099917852 469.5818157492781Q1061.4288868295132 479.8159697789582 1059.460780285344 495.9544434411461L1059.460780285344 495.9544434411461L1017.403857364558 495.7424935056202Q986.004988344504 495.7424935056202 966.8083798982993 496.16639337667203L966.8083798982993 496.16639337667203Q966.8083798982993 489.41427400206055 967.8984081381468 486.3561392180437L967.8984081381468 486.3561392180437Q973.3485493373848 485.9322393469919 976.0736199370037 484.63026117161843Q978.7986905366229 483.3282829962449 979.8887187764703 479.8159697789582Q980.978747016318 476.3339351238896 980.978747016318 469.3698658137522L980.978747016318 469.3698658137522L980.978747016318 412.02226897288205Q980.978747016318 405.69404946932247 979.7978830898164 402.4239647497797Q978.5867406010968 399.15388003023696 975.8616700014779 397.85190185486346Q973.136599401859 396.54992367948995 967.8984081381468 396.1260238084381L967.8984081381468 396.1260238084381Q966.8083798982993 392.85593908889535 966.8083798982993 386.31576964980985L966.8083798982993 386.31576964980985Q982.5229536894353 386.7396695208617 1001.0534337668444 386.7396695208617L1001.0534337668444 386.7396695208617Q1041.172528705679 386.7396695208617 1054.676767454902 386.31576964980985L1054.676767454902 386.31576964980985Q1057.0687738701229 406.78407770917005 1058.8249304787662 413.32424714825555L1058.8249304787662 413.32424714825555Q1055.1006673259537 415.7465321256946 1049.014676320138 415.7465321256946L1049.014676320138 415.7465321256946Q1048.1365980158164 406.5721277736441 1041.4753143278588 401.33393650993213Q1034.8443092021193 396.1260238084381 1018.0397071711359 396.1260238084381L1018.0397071711359 396.1260238084381L1001.0534337668444 396.1260238084381L1001.0534337668444 436.2148401850548L1011.9537161653202 436.2148401850548Q1023.4898483703737 436.2148401850548 1027.971075578636 433.6108838343078Q1032.4523027868984 431.00692748356084 1032.6642527224242 424.01257961120547L1032.6642527224242 424.01257961120547Q1037.4482655528664 422.49865150030604 1042.6864568165784 422.49865150030604L1042.6864568165784 422.49865150030604Q1042.2625569455265 427.94879269954396 1042.2625569455265 440.8171816421891L1042.2625569455265 440.8171816421891Q1042.2625569455265 454.7453202624638 1042.6864568165784 459.77156159064987L1042.6864568165784 459.77156159064987Q1036.8124157462887 459.77156159064987 1033.088152593476 458.46958341527636L1033.088152593476 458.46958341527636Q1032.4523027868984 451.2632856073951 1027.971075578636 448.6593292566481Q1023.4898483703737 446.02509434368307 1011.9537161653202 446.02509434368307L1011.9537161653202 446.02509434368307L1001.0534337668444 446.02509434368307L1001.0534337668444 468.9156873804824Q1001.0534337668444 475.9100352528377 1002.4765261910898 479.5131841567783Q1003.8693400531172 483.08605449850097 1007.472488957058 484.5091469227464Q1011.0756378609985 485.9322393469919 1018.2819356688797 485.9322393469919L1018.2819356688797 485.9322393469919L1019.5839138442532 485.9322393469919Q1032.2100742891544 485.9322393469919 1039.0833079126378 483.7521828672967Q1045.9565415361212 481.57212638760154 1049.3477405045358 477.33312767708316Q1052.7086609107325 473.0638504043468 1055.7667956947494 464.79780291883594L1055.7667956947494 464.79780291883594ZM1184.6020779322903 470.24794411807386Q1190.506397564798 478.9681700368546 1196.7135028194857 482.5410403785772Q1202.9206080741733 486.1441892825178 1212.0647338640058 486.5983677157876L1212.0647338640058 486.5983677157876Q1212.0647338640058 492.8963086571292 1211.216934121902 495.7424935056202L1211.216934121902 495.7424935056202Q1192.686454044493 495.7424935056202 1179.818065101848 497.2564216165196L1179.818065101848 497.2564216165196Q1178.2738584287308 494.6524652657726 1173.9137454693403 488.11229582668705L1173.9137454693403 488.11229582668705L1164.1034913107121 472.18577210002513Q1156.0493937607273 458.6815333508023 1142.7571049470303 450.17325736754754L1142.7571049470303 450.17325736754754L1135.762757074675 450.3852073030734L1129.4648161333334 450.17325736754754L1129.4648161333334 470.00571562032997Q1129.4648161333334 477.2120134282112 1130.554844373181 480.6940480832799Q1131.6448726130286 484.17608273834855 1134.1277147149035 485.5083394759401Q1136.6408353789966 486.8103176513136 1141.8790266427086 487.02226758683946L1141.8790266427086 487.02226758683946Q1142.7571049470303 489.6262239375865 1142.7571049470303 496.16639337667203L1142.7571049470303 496.16639337667203Q1134.6727288348275 495.7424935056202 1118.9884336059092 495.7424935056202L1118.9884336059092 495.7424935056202Q1107.4220228386378 495.7424935056202 1095.2197622647884 496.16639337667203L1095.2197622647884 496.16639337667203Q1095.2197622647884 490.08040237085635 1096.309790504636 487.02226758683946L1096.309790504636 487.02226758683946Q1101.759931703874 486.5983677157876 1104.4850023034928 485.26611097819614Q1107.2100729031117 483.96413280282263 1108.3001011429594 480.6940480832799Q1109.390129382807 477.42396336373713 1109.390129382807 470.8837939246516L1109.390129382807 470.8837939246516L1109.390129382807 411.8103190373561Q1109.390129382807 402.4239647497797 1106.7861730320599 399.39610852798086Q1104.1519381190951 396.337973743964 1096.309790504636 395.8837953106942L1096.309790504636 395.8837953106942Q1095.2197622647884 392.61371059115146 1095.2197622647884 386.31576964980985L1095.2197622647884 386.31576964980985Q1103.5160883125172 386.7396695208617 1119.2003835414353 386.7396695208617L1119.2003835414353 386.7396695208617L1134.9149573325712 386.5277195853358Q1146.239139602099 386.07354115206596 1152.1131806723886 386.07354115206596L1152.1131806723886 386.07354115206596Q1173.0659457272368 386.07354115206596 1183.7239996279686 394.15791726426886Q1194.4123320909187 402.2120148142538 1194.4123320909187 414.86845382137295L1194.4123320909187 414.86845382137295Q1194.4123320909187 427.49461426627414 1186.3582345409336 435.6698260651311Q1178.2738584287308 443.8450378639879 1163.8915413751863 446.69122271247886L1163.8915413751863 446.69122271247886Q1169.341682574424 449.9613074320216 1172.944831478365 454.20030614254Q1176.5479803823055 458.46958341527636 1184.6020779322903 470.24794411807386L1184.6020779322903 470.24794411807386ZM1137.730863618844 439.48492490459756Q1153.4454374099803 439.48492490459756 1163.4676415041345 433.9439480187057Q1173.4898455982884 428.3726925705958 1173.4898455982884 417.6843601076459L1173.4898455982884 417.6843601076459Q1173.4898455982884 395.45989543964237 1142.9690548825563 395.45989543964237L1142.9690548825563 395.45989543964237Q1136.004985572419 395.45989543964237 1129.4648161333334 396.7618736150159L1129.4648161333334 396.7618736150159L1129.4648161333334 438.84907509801985Q1134.0368790282496 439.48492490459756 1137.730863618844 439.48492490459756L1137.730863618844 439.48492490459756ZM1338.7502381840695 393.70373883099904Q1336.5701817043744 402.00006487872787 1336.5701817043744 418.56243841196755L1336.5701817043744 418.56243841196755Q1332.42201868051 420.5305449561368 1325.6698993058988 420.5305449561368L1325.6698993058988 420.5305449561368Q1325.003770937103 406.3601778381182 1317.9185873780937 400.5769724544824Q1310.8334038190844 394.7937670708466 1297.5411150053872 394.7937670708466L1297.5411150053872 394.7937670708466Q1275.7405502084355 394.7937670708466 1264.8402678099599 406.78407770917005Q1253.939985411484 418.77438834749347 1253.939985411484 436.2148401850548L1253.939985411484 436.2148401850548Q1253.939985411484 449.9613074320216 1259.7231907951198 460.9827040793694Q1265.4761176165377 471.9738221644992 1276.2855643283594 478.3020416680588Q1287.0647324779634 484.63026117161843 1301.9012279647777 484.63026117161843L1301.9012279647777 484.63026117161843Q1310.8334038190844 484.63026117161843 1320.2197581066607 482.5410403785772Q1329.575833832019 480.48209814775396 1337.417981446478 476.5458850594154L1337.417981446478 476.5458850594154Q1338.7502381840695 477.635913299263 1339.8402664239172 479.72513409230424Q1340.9302946637647 481.78407632312747 1341.1422445992905 483.54023293177084L1341.1422445992905 483.54023293177084Q1328.9399840254412 490.5043022419082 1318.0397016269656 493.89550121032283Q1307.1394192284897 497.2564216165196 1293.392951981523 497.2564216165196L1293.392951981523 497.2564216165196Q1275.5286002729097 497.2564216165196 1261.570183090417 490.08040237085635Q1247.6117659079243 482.87410456297505 1239.7696182934653 470.00571562032997Q1231.9274706790063 457.16760523990285 1231.9274706790063 440.57495314444515L1231.9274706790063 440.57495314444515Q1231.9274706790063 422.9225513713579 1240.8596465333128 410.38722661311067Q1249.7918223876195 397.85190185486346 1264.5072036255617 391.5236823513039Q1279.2225848635042 385.22574140996227 1296.2391368300139 385.22574140996227L1296.2391368300139 385.22574140996227Q1307.7752690350674 385.22574140996227 1317.7974731292218 387.2846836407855Q1327.8499557855937 389.3436258716087 1338.7502381840695 393.70373883099904L1338.7502381840695 393.70373883099904ZM1427.4664254827758 497.71060004978943Q1408.723995469841 497.71060004978943 1394.3416784162962 490.7162521774341Q1379.929082800534 483.7521828672967 1371.996099499421 471.09574386017755Q1364.03283763609 458.46958341527636 1364.03283763609 441.66498138429273L1364.03283763609 441.66498138429273Q1364.03283763609 425.10260785105305 1371.996099499421 412.23421890840797Q1379.929082800534 399.39610852798086 1394.4325141029503 392.31092496897156Q1408.935945405367 385.22574140996227 1427.8903253538276 385.22574140996227L1427.8903253538276 385.22574140996227Q1446.6630339289807 385.22574140996227 1461.045350982525 392.1898107200996Q1475.4276680360697 399.15388003023696 1483.3909298994006 411.9314332862281Q1491.3541917627315 424.6787079800012 1491.3541917627315 441.24108151324094L1491.3541917627315 441.24108151324094Q1491.3541917627315 458.01540498200654 1483.3909298994006 470.79295823799765Q1475.4276680360697 483.54023293177084 1460.924236733653 490.6254164907801Q1446.4208054312364 497.71060004978943 1427.4664254827758 497.71060004978943L1427.4664254827758 497.71060004978943ZM1430.5245602667926 487.68839595563526Q1448.17696203988 487.68839595563526 1458.5322303184319 475.9100352528377Q1468.887498596984 464.1316745500402 1468.887498596984 444.5111662327837L1468.887498596984 444.5111662327837Q1468.887498596984 430.34079911476505 1463.2254074622201 419.10745253189134Q1457.5633163274563 407.87410594901763 1447.4199979844302 401.576165007676Q1437.2766796414041 395.24794550411644 1424.6202406342848 395.24794550411644L1424.6202406342848 395.24794550411644Q1406.9678388611976 395.24794550411644 1396.7336848315174 407.1171418935679Q1386.4692522396194 419.01661684523737 1386.4692522396194 438.39489666475L1386.4692522396194 438.39489666475Q1386.4692522396194 453.01944221603844 1392.1616219366013 464.25278879891215Q1397.823713071365 475.4558568195679 1407.8459171655193 481.57212638760154Q1417.8681212596737 487.68839595563526 1430.5245602667926 487.68839595563526L1430.5245602667926 487.68839595563526ZM1609.2891916017963 470.24794411807386Q1615.1632326720862 478.9681700368546 1621.3703379267738 482.5410403785772Q1627.6077217436793 486.1441892825178 1636.751847533512 486.5983677157876L1636.751847533512 486.5983677157876Q1636.751847533512 492.8963086571292 1635.8737692291904 495.7424935056202L1635.8737692291904 495.7424935056202Q1617.3432891517816 495.7424935056202 1604.4749002091364 497.2564216165196L1604.4749002091364 497.2564216165196Q1602.9609720982369 494.6524652657726 1598.6008591388465 488.11229582668705L1598.6008591388465 488.11229582668705L1588.7906049802184 472.18577210002513Q1580.7365074302336 458.6815333508023 1567.4139400543186 450.17325736754754L1567.4139400543186 450.17325736754754L1560.449870744181 450.3852073030734L1554.1216512406215 450.17325736754754L1554.1216512406215 470.00571562032997Q1554.1216512406215 477.2120134282112 1555.211679480469 480.6940480832799Q1556.3017077203165 484.17608273834855 1558.8148283844096 485.5083394759401Q1561.327949048503 486.8103176513136 1566.5661403122149 487.02226758683946L1566.5661403122149 487.02226758683946Q1567.4139400543186 489.6262239375865 1567.4139400543186 496.16639337667203L1567.4139400543186 496.16639337667203Q1559.3598425043335 495.7424935056202 1543.6755472754155 495.7424935056202L1543.6755472754155 495.7424935056202Q1532.109136508144 495.7424935056202 1519.9068759342947 496.16639337667203L1519.9068759342947 496.16639337667203Q1519.9068759342947 490.08040237085635 1520.9969041741422 487.02226758683946L1520.9969041741422 487.02226758683946Q1526.44704537338 486.5983677157876 1529.172115972999 485.26611097819614Q1531.897186572618 483.96413280282263 1532.9872148124655 480.6940480832799Q1534.0772430523132 477.42396336373713 1534.0772430523132 470.8837939246516L1534.0772430523132 470.8837939246516L1534.0772430523132 411.8103190373561Q1534.0772430523132 402.4239647497797 1531.4430081393482 399.39610852798086Q1528.8390517886012 396.337973743964 1520.9969041741422 395.8837953106942L1520.9969041741422 395.8837953106942Q1519.9068759342947 392.61371059115146 1519.9068759342947 386.31576964980985L1519.9068759342947 386.31576964980985Q1528.1729234198053 386.7396695208617 1543.8874972109413 386.7396695208617L1543.8874972109413 386.7396695208617L1559.5717924398593 386.5277195853358Q1570.926253271605 386.07354115206596 1576.8002943418949 386.07354115206596L1576.8002943418949 386.07354115206596Q1597.7227808345249 386.07354115206596 1608.4111132974747 394.15791726426886Q1619.0994457604247 402.2120148142538 1619.0994457604247 414.86845382137295L1619.0994457604247 414.86845382137295Q1619.0994457604247 427.49461426627414 1611.0150696482217 435.6698260651311Q1602.9609720982369 443.8450378639879 1588.5786550446924 446.69122271247886L1588.5786550446924 446.69122271247886Q1594.0287962439302 449.9613074320216 1597.631945147871 454.20030614254Q1601.2048154895936 458.46958341527636 1609.2891916017963 470.24794411807386L1609.2891916017963 470.24794411807386ZM1562.4179772883504 439.48492490459756Q1578.1022725172684 439.48492490459756 1588.1244766114226 433.9439480187057Q1598.1769592677947 428.3726925705958 1598.1769592677947 417.6843601076459L1598.1769592677947 417.6843601076459Q1598.1769592677947 395.45989543964237 1567.6561685520624 395.45989543964237L1567.6561685520624 395.45989543964237Q1560.6618206797073 395.45989543964237 1554.1216512406215 396.7618736150159L1554.1216512406215 396.7618736150159L1554.1216512406215 438.84907509801985Q1558.6937141355377 439.48492490459756 1562.4179772883504 439.48492490459756L1562.4179772883504 439.48492490459756Z " fill="#ffffff" transform="matrix(0.5345954055602693,0,0,0.5345954055602693,0,74.02086193571846)"/></g></svg>